HIERARCHY
ROOT Hips
{
	OFFSET 0.000000 0.000000 0.000000
	CHANNELS 6 Xposition Yposition Zposition Xrotation Yrotation Zrotation
	JOINT Spine
	{
		OFFSET 0.000000 0.049001 0.073502
		CHANNELS 3 Xrotation Yrotation Zrotation
		JOINT Spine1
		{
			OFFSET 0.000000 0.017018 0.096514
			CHANNELS 3 Xrotation Yrotation Zrotation
			JOINT Spine2
			{
				OFFSET 0.000000 0.008542 0.097630
				CHANNELS 3 Xrotation Yrotation Zrotation
				JOINT Spine3
				{
					OFFSET 0.000000 0.000000 0.098003
					CHANNELS 3 Xrotation Yrotation Zrotation
					JOINT Neck
					{
						OFFSET 0.000000 -0.036751 0.257258
						CHANNELS 3 Xrotation Yrotation Zrotation
						JOINT Head
						{
							OFFSET 0.000000 -0.023400 0.132707
							CHANNELS 3 Xrotation Yrotation Zrotation
							End Site
							{
								OFFSET 0.000000 0.000000 0.000000
							}
						}
					}
					JOINT RightShoulder
					{
						OFFSET -0.030410 -0.050683 0.164214
						CHANNELS 3 Xrotation Yrotation Zrotation
						JOINT RightArm
						{
							OFFSET -0.151036 0.000000 0.000000
							CHANNELS 3 Xrotation Yrotation Zrotation
							JOINT RightForeArm
							{
								OFFSET -0.279942 0.000000 0.000000
								CHANNELS 3 Xrotation Yrotation Zrotation
								JOINT RightHand
								{
									OFFSET -0.265034 0.000000 0.000000
									CHANNELS 3 Xrotation Yrotation Zrotation
									JOINT RightHandEnd
									{
										OFFSET -0.071866 0.000000 0.000000
										CHANNELS 3 Xrotation Yrotation Zrotation
										End Site
										{
											OFFSET 0.000000 0.000000 0.000000
										}
									}
									JOINT RightHandThumb1
									{
										OFFSET -0.028746 -0.047911 -0.019164
										CHANNELS 3 Xrotation Yrotation Zrotation
										End Site
										{
											OFFSET 0.000000 0.000000 0.000000
										}
									}
								}
							}
						}
					}
					JOINT LeftShoulder
					{
						OFFSET 0.030410 -0.050683 0.164214
						CHANNELS 3 Xrotation Yrotation Zrotation
						JOINT LeftArm
						{
							OFFSET 0.151036 0.000000 0.000000
							CHANNELS 3 Xrotation Yrotation Zrotation
							JOINT LeftForeArm
							{
								OFFSET 0.279942 0.000000 0.000000
								CHANNELS 3 Xrotation Yrotation Zrotation
								JOINT LeftHand
								{
									OFFSET 0.265034 0.000000 0.000000
									CHANNELS 3 Xrotation Yrotation Zrotation
									JOINT LeftHandEnd
									{
										OFFSET 0.071866 0.000000 0.000000
										CHANNELS 3 Xrotation Yrotation Zrotation
										End Site
										{
											OFFSET 0.000000 0.000000 0.000000
										}
									}
									JOINT LeftHandThumb1
									{
										OFFSET 0.028746 -0.047911 -0.019164
										CHANNELS 3 Xrotation Yrotation Zrotation
										End Site
										{
											OFFSET 0.000000 0.000000 0.000000
										}
									}
								}
							}
						}
					}
				}
			}
		}
	}
	JOINT RightUpLeg
	{
		OFFSET -0.090216 0.000000 -0.026355
		CHANNELS 3 Xrotation Yrotation Zrotation
		JOINT RightLeg
		{
			OFFSET 0.000000 0.000000 -0.402871
			CHANNELS 3 Xrotation Yrotation Zrotation
			JOINT RightFoot
			{
				OFFSET 0.000000 0.000000 -0.414145
				CHANNELS 3 Xrotation Yrotation Zrotation
				JOINT RightToeBase
				{
					OFFSET 0.000000 -0.146359 -0.053270
					CHANNELS 3 Xrotation Yrotation Zrotation
					End Site
					{
						OFFSET 0.000000 0.000000 0.000000
					}
				}
			}
		}
	}
	JOINT LeftUpLeg
	{
		OFFSET 0.090216 0.000000 -0.026355
		CHANNELS 3 Xrotation Yrotation Zrotation
		JOINT LeftLeg
		{
			OFFSET 0.000000 0.000000 -0.402871
			CHANNELS 3 Xrotation Yrotation Zrotation
			JOINT LeftFoot
			{
				OFFSET 0.000000 0.000000 -0.414145
				CHANNELS 3 Xrotation Yrotation Zrotation
				JOINT LeftToeBase
				{
					OFFSET 0.000000 -0.146359 -0.053270
					CHANNELS 3 Xrotation Yrotation Zrotation
					End Site
					{
						OFFSET 0.000000 0.000000 0.000000
					}
				}
			}
		}
	}
}
MOTION
Frames: 4
Frame Time: 0.033333
0.404421 -0.829008 0.907224 -3.025300 -0.000900 -89.934700 2.546200 1.463800 -0.265200 0.089100 -1.816300 -0.157300 6.190500 2.883600 2.499400 2.276900 1.422400 -1.715000 5.531900 3.891000 -1.525800 1.021200 -1.195300 -6.622200 -15.931800 12.816800 21.547400 -8.316000 13.546900 30.821700 0.000000 0.000000 37.670800 10.216100 30.864500 17.234000 0.000000 0.000000 0.000000 0.000000 0.000000 0.000000 14.318300 5.993300 -3.831000 38.982000 34.042800 -46.968000 -0.000100 -0.000100 -95.634500 2.508300 0.160600 14.321400 0.000000 0.000000 0.000000 0.000000 0.000000 0.000000 -24.846200 12.214400 -5.681700 51.244400 0.000000 0.000000 8.452900 -4.256400 -30.086700 -23.104900 0.000000 0.000000 -8.902500 4.357100 17.557000 23.365600 0.000000 0.000000 -6.740200 -9.461700 2.109600 -14.106700 0.000000 0.000000 
0.403725 -0.838949 0.905266 -4.739100 0.972200 -91.136600 3.571500 2.470400 -0.518700 0.516700 -1.534600 -0.166800 6.035300 2.832300 1.897800 2.173700 1.405400 -1.881900 5.181400 4.069800 -0.888200 0.719100 -0.390200 -5.484800 -15.902500 13.006500 21.014500 -8.820500 12.443400 29.393100 0.000000 0.000000 38.096000 7.581900 26.686900 17.747000 0.000000 0.000000 0.000000 0.000000 0.000000 0.000000 14.474500 5.634400 -4.124500 39.310200 33.458100 -47.514000 -0.000100 -0.000100 -95.821300 1.628600 -0.082900 12.360900 0.000000 0.000000 0.000000 0.000000 0.000000 0.000000 -28.408700 13.135200 -2.385700 55.778900 0.000000 0.000000 11.130200 -2.925600 -34.184700 -27.539700 0.000000 0.000000 -7.129600 6.751000 19.180700 21.887700 0.000000 0.000000 -6.502000 -9.890800 1.700000 -14.148000 0.000000 0.000000 
0.401325 -0.847385 0.903625 -6.117900 1.909800 -91.924900 4.390700 3.193600 -0.708400 0.810900 -1.188500 -0.179500 6.046800 2.747800 1.059300 2.119600 1.405300 -2.090500 4.903100 4.065800 -0.221200 0.635900 0.536300 -3.982000 -15.558600 12.915000 20.048900 -9.511000 11.276000 27.864900 0.000000 0.000000 40.064200 7.407500 22.643000 17.069000 0.000000 0.000000 0.000000 0.000000 0.000000 0.000000 14.454400 5.419100 -4.428500 39.652400 32.735700 -47.755000 -0.000100 -0.000100 -95.995500 -0.291500 0.452200 10.081200 0.000000 0.000000 0.000000 0.000000 0.000000 0.000000 -31.070700 13.458100 0.064000 59.339500 0.000000 0.000000 10.203800 -0.965400 -37.561200 -30.245900 0.000000 0.000000 -5.444600 8.963600 19.424600 20.509700 0.000000 0.000000 -6.219900 -10.311300 2.023200 -14.193700 0.000000 0.000000 
0.396532 -0.854375 0.902843 -7.145900 2.801100 -92.679200 4.971800 3.686500 -0.808100 1.012100 -0.961100 -0.212000 6.093500 2.718300 0.351600 2.110200 1.423200 -2.292100 4.863400 4.090700 0.497300 0.768600 1.309000 -2.419000 -14.481300 12.592700 18.621500 -10.027200 10.348600 26.172000 0.000000 0.000000 43.689000 8.975300 19.738400 15.736900 0.000000 0.000000 0.000000 0.000000 0.000000 0.000000 14.304700 5.381000 -4.637100 40.328700 31.917900 -48.090600 -0.000100 -0.000100 -96.030200 -3.527900 1.565900 7.889000 0.000000 0.000000 0.000000 0.000000 0.000000 0.000000 -32.765900 13.202500 1.961200 61.751100 0.000000 0.000000 7.587800 1.290900 -38.095900 -32.016300 0.000000 0.000000 -3.491700 10.840800 19.367600 18.784200 0.000000 0.000000 -5.914800 -10.607600 2.456900 -14.227700 0.000000 0.000000 
